{"accessors" : [{"bufferView" : 0, "byteOffset" : 0, "componentType" : 5123, "count" : 6, "type" : "SCALAR", "max" : [4], "min" : [0]}, {"bufferView" : 1, "byteOffset" : 0, "componentType" : 5126, "count" : 5, "type" : "VEC3", "max" : [1, 0.0008085384033620358, 0.9999997019767761], "min" : [-1, -0.0008085384033620358, -0.9999997019767761], "name" : "POSITION"}, {"bufferView" : 1, "byteOffset" : 12, "componentType" : 5126, "count" : 5, "type" : "VEC2", "max" : [1, -0], "min" : [0, -1], "name" : "TEXCOORD_0"}, {"bufferView" : 1, "byteOffset" : 20, "componentType" : 5126, "count" : 5, "type" : "VEC3", "max" : [0, 1.0000040531158447, -0.0008085419540293515], "min" : [0, 1.0000040531158447, -0.0008085419540293515], "name" : "NORMAL"}, {"bufferView" : 0, "byteOffset" : 12, "componentType" : 5123, "count" : 36, "type" : "SCALAR", "max" : [34], "min" : [0]}, {"bufferView" : 2, "byteOffset" : 0, "componentType" : 5126, "count" : 35, "type" : "VEC3", "max" : [-0.5956811308860779, 1.1001209020614624, 0.15008080005645752], "min" : [-0.8956811428070068, -0.10012124478816986, -0.1508893370628357], "name" : "POSITION"}, {"bufferView" : 2, "byteOffset" : 12, "componentType" : 5126, "count" : 35, "type" : "VEC2", "max" : [1, -0], "min" : [0, -1], "name" : "TEXCOORD_0"}, {"bufferView" : 2, "byteOffset" : 20, "componentType" : 5126, "count" : 35, "type" : "VEC3", "max" : [1.0000044107437134, 1.0000040531158447, 1.0000040531158447], "min" : [-1.0000044107437134, -1.0000040531158447, -1.0000040531158447], "name" : "NORMAL"}, {"bufferView" : 0, "byteOffset" : 84, "componentType" : 5123, "count" : 36, "type" : "SCALAR", "max" : [34], "min" : [0]}, {"bufferView" : 3, "byteOffset" : 0, "componentType" : 5126, "count" : 35, "type" : "VEC3", "max" : [-0.09646397829055786, 1.1005955934524536, 0.16089054942131042], "min" : [-0.3964639902114868, -0.10059594362974167, -0.1616990864276886], "name" : "POSITION"}, {"bufferView" : 3, "byteOffset" : 12, "componentType" : 5126, "count" : 35, "type" : "VEC2", "max" : [1, -0], "min" : [0, -1], "name" : "TEXCOORD_0"}, {"bufferView" : 3, "byteOffset" : 20, "componentType" : 5126, "count" : 35, "type" : "VEC3", "max" : [1.0000044107437134, 0.9999960064888, 0.9998270273208618], "min" : [-1.0000044107437134, -0.9999960064888, -0.9998270273208618], "name" : "NORMAL"}, {"bufferView" : 0, "byteOffset" : 156, "componentType" : 5123, "count" : 36, "type" : "SCALAR", "max" : [34], "min" : [0]}, {"bufferView" : 4, "byteOffset" : 0, "componentType" : 5126, "count" : 35, "type" : "VEC3", "max" : [-0.3933945298194885, 0.6381914615631104, 0.15139177441596985], "min" : [-0.6933945417404175, 0.43696725368499756, -0.15236201882362366], "name" : "POSITION"}, {"bufferView" : 4, "byteOffset" : 12, "componentType" : 5126, "count" : 35, "type" : "VEC2", "max" : [1, -0], "min" : [0, -1], "name" : "TEXCOORD_0"}, {"bufferView" : 4, "byteOffset" : 20, "componentType" : 5126, "count" : 35, "type" : "VEC3", "max" : [1.0000044107437134, 0.9999960064888, 0.9998270273208618], "min" : [-1.0000044107437134, -0.9999960064888, -0.9998270273208618], "name" : "NORMAL"}], "asset" : {"generator" : "Aspose.3D 22.6", "version" : "2.0"}, "buffers" : [{"uri" : "data:application/octet-stream;base64,", "byteLength" : 3896}], "bufferViews" : [{"buffer" : 0, "byteOffset" : 0, "byteLength" : 228, "target" : 34963}, {"buffer" : 0, "byteOffset" : 232, "byteLength" : 192, "byteStride" : 32, "target" : 34962}, {"buffer" : 0, "byteOffset" : 428, "byteLength" : 1152, "byteStride" : 32, "target" : 34962}, {"buffer" : 0, "byteOffset" : 1584, "byteLength" : 1152, "byteStride" : 32, "target" : 34962}, {"buffer" : 0, "byteOffset" : 2740, "byteLength" : 1152, "byteStride" : 32, "target" : 34962}], "meshes" : [{"primitives" : [{"attributes" : {"POSITION" : 1, "TEXCOORD_0" : 2, "NORMAL" : 3}, "indices" : 0, "mode" : 4}], "name" : ""}, {"primitives" : [{"attributes" : {"POSITION" : 5, "TEXCOORD_0" : 6, "NORMAL" : 7}, "indices" : 4, "mode" : 4}], "name" : ""}, {"primitives" : [{"attributes" : {"POSITION" : 9, "TEXCOORD_0" : 10, "NORMAL" : 11}, "indices" : 8, "mode" : 4}], "name" : ""}, {"primitives" : [{"attributes" : {"POSITION" : 13, "TEXCOORD_0" : 14, "NORMAL" : 15}, "indices" : 12, "mode" : 4}], "name" : ""}], "nodes" : [{"mesh" : 0, "name" : "Plane"}, {"mesh" : 1, "name" : "Box"}, {"mesh" : 2, "name" : "Box"}, {"mesh" : 3, "name" : "Box"}], "scene" : 0, "scenes" : [{"nodes" : [0, 1, 2, 3]}]}