{"accessors" : [{"bufferView" : 0, "byteOffset" : 0, "componentType" : 5123, "count" : 6, "type" : "SCALAR", "max" : [4], "min" : [0]}, {"bufferView" : 1, "byteOffset" : 0, "componentType" : 5126, "count" : 5, "type" : "VEC3", "max" : [8, 0.006468307226896286, 7.999997615814209], "min" : [-8, -0.006468307226896286, -7.999997615814209], "name" : "POSITION"}, {"bufferView" : 1, "byteOffset" : 12, "componentType" : 5126, "count" : 5, "type" : "VEC2", "max" : [1, -0], "min" : [0, -1], "name" : "TEXCOORD_0"}, {"bufferView" : 1, "byteOffset" : 20, "componentType" : 5126, "count" : 5, "type" : "VEC3", "max" : [0, 1.0000040531158447, -0.0008085419540293515], "min" : [0, 1.0000040531158447, -0.0008085419540293515], "name" : "NORMAL"}, {"bufferView" : 0, "byteOffset" : 12, "componentType" : 5123, "count" : 36, "type" : "SCALAR", "max" : [34], "min" : [0]}, {"bufferView" : 2, "byteOffset" : 0, "componentType" : 5126, "count" : 35, "type" : "VEC3", "max" : [-4.765449047088623, 11.200966835021973, 1.1987059116363525], "min" : [-7.165449142456055, 1.5990291833877563, -1.2090551853179932], "name" : "POSITION"}, {"bufferView" : 2, "byteOffset" : 12, "componentType" : 5126, "count" : 35, "type" : "VEC2", "max" : [1, -0], "min" : [0, -1], "name" : "TEXCOORD_0"}, {"bufferView" : 2, "byteOffset" : 20, "componentType" : 5126, "count" : 35, "type" : "VEC3", "max" : [1.0000044107437134, 1.0000040531158447, 1.0000040531158447], "min" : [-1.0000044107437134, -1.0000040531158447, -1.0000040531158447], "name" : "NORMAL"}, {"bufferView" : 0, "byteOffset" : 84, "componentType" : 5123, "count" : 36, "type" : "SCALAR", "max" : [34], "min" : [0]}, {"bufferView" : 3, "byteOffset" : 0, "componentType" : 5126, "count" : 35, "type" : "VEC3", "max" : [-0.7717118263244629, 11.204764366149902, 1.2851839065551758], "min" : [-3.1717119216918945, 1.5952316522598267, -1.2955331802368164], "name" : "POSITION"}, {"bufferView" : 3, "byteOffset" : 12, "componentType" : 5126, "count" : 35, "type" : "VEC2", "max" : [1, -0], "min" : [0, -1], "name" : "TEXCOORD_0"}, {"bufferView" : 3, "byteOffset" : 20, "componentType" : 5126, "count" : 35, "type" : "VEC3", "max" : [1.0000044107437134, 0.9999960064888, 0.9998270273208618], "min" : [-1.0000044107437134, -0.9999960064888, -0.9998270273208618], "name" : "NORMAL"}, {"bufferView" : 0, "byteOffset" : 156, "componentType" : 5123, "count" : 36, "type" : "SCALAR", "max" : [34], "min" : [0]}, {"bufferView" : 4, "byteOffset" : 0, "componentType" : 5126, "count" : 35, "type" : "VEC3", "max" : [-3.147156238555908, 7.508894443511963, 1.2091909646987915], "min" : [-5.54715633392334, 5.899100303649902, -1.2208393812179565], "name" : "POSITION"}, {"bufferView" : 4, "byteOffset" : 12, "componentType" : 5126, "count" : 35, "type" : "VEC2", "max" : [1, -0], "min" : [0, -1], "name" : "TEXCOORD_0"}, {"bufferView" : 4, "byteOffset" : 20, "componentType" : 5126, "count" : 35, "type" : "VEC3", "max" : [1.0000044107437134, 0.9999960064888, 0.9998270273208618], "min" : [-1.0000044107437134, -0.9999960064888, -0.9998270273208618], "name" : "NORMAL"}, {"bufferView" : 0, "byteOffset" : 228, "componentType" : 5123, "count" : 36, "type" : "SCALAR", "max" : [34], "min" : [0]}, {"bufferView" : 5, "byteOffset" : 0, "componentType" : 5126, "count" : 35, "type" : "VEC3", "max" : [3.119999885559082, 11.204764366149902, 1.2851839065551758], "min" : [0.7200000286102295, 1.5952316522598267, -1.2955331802368164], "name" : "POSITION"}, {"bufferView" : 5, "byteOffset" : 12, "componentType" : 5126, "count" : 35, "type" : "VEC2", "max" : [1, -0], "min" : [0, -1], "name" : "TEXCOORD_0"}, {"bufferView" : 5, "byteOffset" : 20, "componentType" : 5126, "count" : 35, "type" : "VEC3", "max" : [1.0000044107437134, 0.9999960064888, 0.9998270273208618], "min" : [-1.0000044107437134, -0.9999960064888, -0.9998270273208618], "name" : "NORMAL"}, {"bufferView" : 0, "byteOffset" : 300, "componentType" : 5123, "count" : 36, "type" : "SCALAR", "max" : [34], "min" : [0]}, {"bufferView" : 6, "byteOffset" : 0, "componentType" : 5126, "count" : 35, "type" : "VEC3", "max" : [5.065430641174316, 7.508894443511963, 1.2091909646987915], "min" : [2.665430784225464, 5.899100303649902, -1.2208393812179565], "name" : "POSITION"}, {"bufferView" : 6, "byteOffset" : 12, "componentType" : 5126, "count" : 35, "type" : "VEC2", "max" : [1, -0], "min" : [0, -1], "name" : "TEXCOORD_0"}, {"bufferView" : 6, "byteOffset" : 20, "componentType" : 5126, "count" : 35, "type" : "VEC3", "max" : [1.0000044107437134, 0.9999960064888, 0.9998270273208618], "min" : [-1.0000044107437134, -0.9999960064888, -0.9998270273208618], "name" : "NORMAL"}, {"bufferView" : 0, "byteOffset" : 372, "componentType" : 5123, "count" : 36, "type" : "SCALAR", "max" : [34], "min" : [0]}, {"bufferView" : 7, "byteOffset" : 0, "componentType" : 5126, "count" : 35, "type" : "VEC3", "max" : [5.658006191253662, 11.204895973205566, 1.2091971635818481], "min" : [2.072854995727539, 9.595101356506348, -1.2208331823349], "name" : "POSITION"}, {"bufferView" : 7, "byteOffset" : 12, "componentType" : 5126, "count" : 35, "type" : "VEC2", "max" : [1, -0], "min" : [0, -1], "name" : "TEXCOORD_0"}, {"bufferView" : 7, "byteOffset" : 20, "componentType" : 5126, "count" : 35, "type" : "VEC3", "max" : [1.0000044107437134, 0.9999960064888, 0.9998270273208618], "min" : [-1.0000044107437134, -0.9999960064888, -0.9998270273208618], "name" : "NORMAL"}], "asset" : {"generator" : "Aspose.3D 22.6", "version" : "2.0"}, "buffers" : [{"uri" : "data:application/octet-stream;base64,", "byteLength" : 7580}], "bufferViews" : [{"buffer" : 0, "byteOffset" : 0, "byteLength" : 444, "target" : 34963}, {"buffer" : 0, "byteOffset" : 448, "byteLength" : 192, "byteStride" : 32, "target" : 34962}, {"buffer" : 0, "byteOffset" : 644, "byteLength" : 1152, "byteStride" : 32, "target" : 34962}, {"buffer" : 0, "byteOffset" : 1800, "byteLength" : 1152, "byteStride" : 32, "target" : 34962}, {"buffer" : 0, "byteOffset" : 2956, "byteLength" : 1152, "byteStride" : 32, "target" : 34962}, {"buffer" : 0, "byteOffset" : 4112, "byteLength" : 1152, "byteStride" : 32, "target" : 34962}, {"buffer" : 0, "byteOffset" : 5268, "byteLength" : 1152, "byteStride" : 32, "target" : 34962}, {"buffer" : 0, "byteOffset" : 6424, "byteLength" : 1152, "byteStride" : 32, "target" : 34962}], "meshes" : [{"primitives" : [{"attributes" : {"POSITION" : 1, "TEXCOORD_0" : 2, "NORMAL" : 3}, "indices" : 0, "mode" : 4}], "name" : ""}, {"primitives" : [{"attributes" : {"POSITION" : 5, "TEXCOORD_0" : 6, "NORMAL" : 7}, "indices" : 4, "mode" : 4}], "name" : ""}, {"primitives" : [{"attributes" : {"POSITION" : 9, "TEXCOORD_0" : 10, "NORMAL" : 11}, "indices" : 8, "mode" : 4}], "name" : ""}, {"primitives" : [{"attributes" : {"POSITION" : 13, "TEXCOORD_0" : 14, "NORMAL" : 15}, "indices" : 12, "mode" : 4}], "name" : ""}, {"primitives" : [{"attributes" : {"POSITION" : 17, "TEXCOORD_0" : 18, "NORMAL" : 19}, "indices" : 16, "mode" : 4}], "name" : ""}, {"primitives" : [{"attributes" : {"POSITION" : 21, "TEXCOORD_0" : 22, "NORMAL" : 23}, "indices" : 20, "mode" : 4}], "name" : ""}, {"primitives" : [{"attributes" : {"POSITION" : 25, "TEXCOORD_0" : 26, "NORMAL" : 27}, "indices" : 24, "mode" : 4}], "name" : ""}], "nodes" : [{"mesh" : 0, "name" : "Plane"}, {"mesh" : 1, "name" : "Box"}, {"mesh" : 2, "name" : "Box"}, {"mesh" : 3, "name" : "Box"}, {"mesh" : 4, "name" : "Box"}, {"mesh" : 5, "name" : "Box"}, {"mesh" : 6, "name" : "Box"}], "scene" : 0, "scenes" : [{"nodes" : [0, 1, 2, 3, 4, 5, 6]}]}