{
  "asset": {
    "version": "2.0",
    "generator": "THREE.GLTFExporter"
  },
  "scenes": [
    {
      "name": "Scene",
      "nodes": [
        6
      ]
    }
  ],
  "scene": 0,
  "nodes": [
    {
      "matrix": [
        0.15,
        0,
        0,
        0,
        0,
        2.6645352591003756e-16,
        1.2,
        0,
        0,
        -0.15,
        3.3306690738754695e-17,
        0,
        -0.37284056925837517,
        0,
        0.5,
        1
      ],
      "name": "Box",
      "mesh": 1
    },
    {
      "matrix": [
        0.15,
        0,
        0,
        0,
        0,
        -0.011786610210686454,
        1.1999421135287074,
        0,
        0,
        -0.14999276419108842,
        -0.0014733262763358067,
        0,
        -0.1232319882087286,
        0,
        0.5,
        1
      ],
      "name": "Box",
      "mesh": 1
    },
    {
      "matrix": [
        0.15,
        0,
        0,
        0,
        0,
        -0.0019644350351144093,
        0.19999035225478456,
        0,
        0,
        -0.14999276419108842,
        -0.0014733262763358067,
        0,
        -0.27169726653821874,
        0.00002523465836848371,
        0.5375795860207632,
        1
      ],
      "name": "Box",
      "mesh": 1
    },
    {
      "matrix": [
        0.15,
        0,
        0,
        0,
        0,
        -0.011786610210686454,
        1.1999421135287074,
        0,
        0,
        -0.14999276419108842,
        -0.0014733262763358067,
        0,
        0.12019353197444813,
        0,
        0.5,
        1
      ],
      "name": "Box",
      "mesh": 1
    },
    {
      "matrix": [
        0.15,
        0,
        0,
        0,
        0,
        -0.0019644350351144093,
        0.19999035225478456,
        0,
        0,
        -0.14999276419108842,
        -0.0014733262763358067,
        0,
        0.24158942186449933,
        0.00002523465836848371,
        0.5375795860207632,
        1
      ],
      "name": "Box",
      "mesh": 1
    },
    {
      "matrix": [
        -0.22407195591025433,
        0,
        0,
        0,
        0,
        -0.0019644350351144093,
        0.19999035225478456,
        0,
        0,
        -0.14999276419108842,
        -0.0014733262763358067,
        0,
        0.24158942186449933,
        -0.00016192566183057368,
        1,
        1
      ],
      "name": "Box",
      "mesh": 1
    },
    {
      "matrix": [
        16,
        0,
        0,
        0,
        0,
        -0.012936614039631422,
        -15.999994770124685,
        0,
        0,
        7.9999973850623425,
        -0.006468307019815711,
        0,
        0,
        0,
        0,
        1
      ],
      "name": "Plane",
      "mesh": 0,
      "children": [
        0,
        1,
        2,
        3,
        4,
        5
      ]
    }
  ],
  "bufferViews": [
    {
      "buffer": 0,
      "byteOffset": 0,
      "byteLength": 48,
      "target": 34962,
      "byteStride": 12
    },
    {
      "buffer": 0,
      "byteOffset": 48,
      "byteLength": 48,
      "target": 34962,
      "byteStride": 12
    },
    {
      "buffer": 0,
      "byteOffset": 96,
      "byteLength": 32,
      "target": 34962,
      "byteStride": 8
    },
    {
      "buffer": 0,
      "byteOffset": 128,
      "byteLength": 12,
      "target": 34963
    },
    {
      "buffer": 0,
      "byteOffset": 140,
      "byteLength": 288,
      "target": 34962,
      "byteStride": 12
    },
    {
      "buffer": 0,
      "byteOffset": 428,
      "byteLength": 288,
      "target": 34962,
      "byteStride": 12
    },
    {
      "buffer": 0,
      "byteOffset": 716,
      "byteLength": 192,
      "target": 34962,
      "byteStride": 8
    },
    {
      "buffer": 0,
      "byteOffset": 908,
      "byteLength": 72,
      "target": 34963
    }
  ],
  "buffers": [
    {
      "byteLength": 980,
      "uri": "data:application/octet-stream;base64,"
    }
  ],
  "accessors": [
    {
      "bufferView": 0,
      "componentType": 5126,
      "count": 4,
      "max": [
        0.5,
        0.5,
        0
      ],
      "min": [
        -0.5,
        -0.5,
        0
      ],
      "type": "VEC3"
    },
    {
      "bufferView": 1,
      "componentType": 5126,
      "count": 4,
      "max": [
        0,
        0,
        1
      ],
      "min": [
        0,
        0,
        1
      ],
      "type": "VEC3"
    },
    {
      "bufferView": 2,
      "componentType": 5126,
      "count": 4,
      "max": [
        1,
        1
      ],
      "min": [
        0,
        0
      ],
      "type": "VEC2"
    },
    {
      "bufferView": 3,
      "componentType": 5123,
      "count": 6,
      "max": [
        3
      ],
      "min": [
        0
      ],
      "type": "SCALAR"
    },
    {
      "bufferView": 4,
      "componentType": 5126,
      "count": 24,
      "max": [
        0.5,
        0.5,
        0.5
      ],
      "min": [
        -0.5,
        -0.5,
        -0.5
      ],
      "type": "VEC3"
    },
    {
      "bufferView": 5,
      "componentType": 5126,
      "count": 24,
      "max": [
        1,
        1,
        1
      ],
      "min": [
        -1,
        -1,
        -1
      ],
      "type": "VEC3"
    },
    {
      "bufferView": 6,
      "componentType": 5126,
      "count": 24,
      "max": [
        1,
        1
      ],
      "min": [
        0,
        0
      ],
      "type": "VEC2"
    },
    {
      "bufferView": 7,
      "componentType": 5123,
      "count": 36,
      "max": [
        23
      ],
      "min": [
        0
      ],
      "type": "SCALAR"
    }
  ],
  "materials": [
    {
      "pbrMetallicRoughness": {
        "metallicFactor": 0,
        "roughnessFactor": 0.9
      },
      "extensions": {
        "KHR_materials_unlit": {}
      }
    },
    {
      "pbrMetallicRoughness": {
        "baseColorFactor": [
          0.8196078431372549,
          0.08235294117647059,
          0.08235294117647059,
          1
        ],
        "metallicFactor": 0,
        "roughnessFactor": 0.9
      },
      "extensions": {
        "KHR_materials_unlit": {}
      }
    }
  ],
  "meshes": [
    {
      "primitives": [
        {
          "mode": 4,
          "attributes": {
            "POSITION": 0,
            "NORMAL": 1,
            "TEXCOORD_0": 2
          },
          "indices": 3,
          "material": 0
        }
      ]
    },
    {
      "primitives": [
        {
          "mode": 4,
          "attributes": {
            "POSITION": 4,
            "NORMAL": 5,
            "TEXCOORD_0": 6
          },
          "indices": 7,
          "material": 1
        }
      ]
    }
  ],
  "extensionsUsed": [
    "KHR_materials_unlit"
  ]
}